# xmcd
#
# Track frame offsets:
#	187
#	20095
#	39437
#	54177
#
# Disc length: 985 seconds
#
# Revision: 1
# Processed by: cddbd v1.5.1PL0 Copyright (c) Steve Scherf et al.
# Submitted via: CDex 1.50Beta5
#
DISCID=2803d704
DTITLE=柳ジョージ - BURNING
DYEAR=1900
DGENRE=Blues
TTITLE0=BURNING
TTITLE1=Miss You
TTITLE2=BURNING(CM Version)
TTITLE3=BURNING(Original KARAOKE)
EXTD=
EXTT0=
EXTT1=
EXTT2=
EXTT3=
PLAYORDER=
